<?xml version="1.0" encoding="UTF-8" standalone="no"?>
<!DOCTYPE svg PUBLIC "-//W3C//DTD SVG 1.1//EN" "http://www.w3.org/Graphics/SVG/1.1/DTD/svg11.dtd">
<svg width="100%" height="100%" viewBox="0 0 604 217" version="1.1" xmlns="http://www.w3.org/2000/svg" xmlns:xlink="http://www.w3.org/1999/xlink" xml:space="preserve" xmlns:serif="http://www.serif.com/" style="fill-rule:evenodd;clip-rule:evenodd;stroke-linejoin:round;stroke-miterlimit:2;">
    <g transform="matrix(1,0,0,1,-164,-382.5)">
        <g transform="matrix(1.274087,0,0,1.2645,311.821733,339.032826)">
            <path d="M75.227,34.375C47.76,40.361 28.003,64.887 28.003,92.999C28.003,125.914 55.088,152.999 88.003,152.999C101.282,152.999 114.194,148.59 124.7,140.468C120.503,141.383 116.22,141.844 111.924,141.844C79.009,141.844 51.924,114.759 51.924,81.844C51.924,63.28 60.54,45.729 75.227,34.375" style="fill:rgb(250,250,247);fill-rule:nonzero;"/>
            <path d="M106,119.4C99.533,119.4 94.4,117.3 90.6,113.1C86.867,108.833 85,102.867 85,95.2L85,54.2L97.7,54.2L97.7,92C97.7,97.733 98.7,101.967 100.7,104.7C102.7,107.433 105.733,108.8 109.8,108.8C114.467,108.8 118.1,107.3 120.7,104.3C123.3,101.3 124.6,97.067 124.6,91.6L124.6,54.2L137.3,54.2L137.3,118L125.4,118L125.3,107.6C121.9,115.467 115.467,119.4 106,119.4M173.3,119.4C166.833,119.4 161.733,117.3 158,113.1C154.2,108.833 152.3,102.867 152.3,95.2L152.3,54.2L165,54.2L165,92C165,97.733 166,101.967 168,104.7C170,107.433 173.067,108.8 177.2,108.8C181.8,108.8 185.4,107.3 188,104.3C190.6,101.3 191.9,97.067 191.9,91.6L191.9,54.2L204.6,54.2L204.6,118L192.8,118L192.6,107.6C189.2,115.467 182.767,119.4 173.3,119.4" style="fill:rgb(250,250,247);fill-rule:nonzero;"/>
        </g>
        <g transform="matrix(1.161518,0,0,1.108795,-208.995995,-61.431541)">
            <g transform="matrix(1,0,0,1,319.926,590.85)">
                <text x="0px" y="0px" style="font-family:'GeistMonoNFM-Regular', 'GeistMono Nerd Font Mono', monospace;font-size:30.063px;fill:rgb(185,185,185);">drag and drop into production</text>
            </g>
        </g>
    </g>
</svg>
