<?xml version="1.0" encoding="UTF-8" standalone="no"?>
<!DOCTYPE svg PUBLIC "-//W3C//DTD SVG 1.1//EN" "http://www.w3.org/Graphics/SVG/1.1/DTD/svg11.dtd">
<svg width="100%" height="100%" viewBox="0 0 471 317" version="1.1" xmlns="http://www.w3.org/2000/svg" xmlns:xlink="http://www.w3.org/1999/xlink" xml:space="preserve" xmlns:serif="http://www.serif.com/" style="fill-rule:evenodd;clip-rule:evenodd;stroke-linejoin:round;stroke-miterlimit:2;">
    <g transform="matrix(2.666667,0,0,2.666667,-4266.016647,-3138.657264)">
        <g transform="matrix(1,0,0,1,1571.753709,1142.621474)">
            <path d="M75.227,34.375C47.75965,40.36076 28.00253,64.8871 28.00253,92.99911C28.00253,125.91413 55.08751,152.99911 88.00253,152.99911C101.28236,152.99911 114.19369,148.59026 124.7,140.468C120.50303,141.38262 116.21994,141.84389 111.92447,141.84389C79.00944,141.84389 51.92447,114.75892 51.92447,81.84389C51.92447,63.27983 60.54008,45.72923 75.227,34.375" style="fill:rgb(10,10,10);fill-rule:nonzero;"/>
            <path d="M106,119.4C99.53333,119.4 94.4,117.3 90.6,113.1C86.86667,108.83333 85,102.86667 85,95.2L85,54.2L97.7,54.2L97.7,92C97.7,97.73333 98.7,101.96667 100.7,104.7C102.7,107.43333 105.73333,108.8 109.8,108.8C114.46667,108.8 118.1,107.3 120.7,104.3C123.3,101.3 124.6,97.06667 124.6,91.6L124.6,54.2L137.3,54.2L137.3,118L125.4,118L125.3,107.6C121.9,115.46667 115.46667,119.4 106,119.4M173.3,119.4C166.83333,119.4 161.73333,117.3 158,113.1C154.2,108.83333 152.3,102.86667 152.3,95.2L152.3,54.2L165,54.2L165,92C165,97.73333 166,101.96667 168,104.7C170,107.43333 173.06667,108.8 177.2,108.8C181.8,108.8 185.4,107.3 188,104.3C190.6,101.3 191.9,97.06667 191.9,91.6L191.9,54.2L204.6,54.2L204.6,118L192.8,118L192.6,107.6C189.2,115.46667 182.76667,119.4 173.3,119.4" style="fill:rgb(10,10,10);fill-rule:nonzero;"/>
        </g>
    </g>
</svg>
